 http://imdb.com/title/tt1074638/

Plot:
Bond's loyalty to M is tested as her past comes back to haunt her. As MI6 comes
under attack, 007 must track down and destroy the threat, no matter how personal
the cost.

SCREENSHOTS COMPARISION TO OTHER TOP GROUPS(usually in worst case rare scenarios):

[url]http://screenshotcomparison.com/comparison/6223[/url]

SUBTITLES:
ENGLISH, POLISH others from other BluRay releases on subscene.com

General
Complete name                  : SKYFALL_2012_720p_BluRay_QEBSx_AAC20_MP4-FASM.mp4
Format                         : MPEG-4
Format profile                 : Base Media
Codec ID                       : isom
File size                      : 2.35 GiB
Duration                       : 2h 23mn
Overall bit rate mode          : Variable
Overall bit rate               : 2 354 Kbps
Encoded date                   : UTC 2013-02-04 20:59:53
Tagged date                    : UTC 2013-02-04 20:59:53

Video
ID                             : 1
Format                         : AVC
Format/Info                    : Advanced Video Codec
Format profile                 : High@L3.1
Format settings, CABAC         : Yes
Format settings, ReFrames      : 5 frames
Codec ID                       : avc1
Codec ID/Info                  : Advanced Video Coding
Duration                       : 2h 23mn
Bit rate                       : 2 212 Kbps
Maximum bit rate               : 11.3 Mbps
Width                          : 1 280 pixels
Height                         : 528 pixels
Display aspect ratio           : 2.40:1
Frame rate mode                : Constant
Frame rate                     : 23.976 fps
Color space                    : YUV
Chroma subsampling             : 4:2:0
Bit depth                      : 8 bits
Scan type                      : Progressive
Bits/(Pixel*Frame)             : 0.137
Stream size                    : 2.21 GiB (94%)
Title                          : 1280x528.264#trackID=1:fps=23.976 - Imported with GPAC 0.5.0-rev4065
Writing library                : FASM Quality Enhancer Bitrate Squeezer X.0 (c)2013 Fachman
Encoded date                   : UTC 2013-02-04 20:59:53
Tagged date                    : UTC 2013-02-04 21:01:14
Color primaries                : BT.709
Transfer characteristics       : BT.709
Matrix coefficients            : BT.709

Audio
ID                             : 2
Format                         : AAC
Format/Info                    : Advanced Audio Codec
Format profile                 : LC
Codec ID                       : 40
Duration                       : 2h 23mn
Bit rate mode                  : Variable
Bit rate                       : 138 Kbps
Maximum bit rate               : 202 Kbps
Channel(s)                     : 2 channels
Channel positions              : Front: L R
Sampling rate                  : 48.0 KHz
Compression mode               : Lossy
Stream size                    : 141 MiB (6%)
Language                       : English
Encoded date                   : UTC 2013-02-04 21:01:09
Tagged date                    : UTC 2013-02-04 21:01:14

Menu
00:00:00.000                   : Chapter01
00:04:28.477                   : Chapter02
00:07:32.452                   : Chapter03
00:12:47.392                   : Chapter04
00:16:47.465                   : Chapter05
00:21:37.338                   : Chapter06
00:25:00.290                   : Chapter07
00:29:25.222                   : Chapter08
00:35:06.146                   : Chapter09
00:38:27.764                   : Chapter10
00:41:24.440                   : Chapter11
00:46:22.905                   : Chapter12
00:50:48.629                   : Chapter13
00:54:53.290                   : Chapter14
00:59:38.742                   : Chapter15
01:05:14.244                   : Chapter16
01:10:16.671                   : Chapter17
01:17:09.750                   : Chapter18
01:20:55.059                   : Chapter19
01:26:10.374                   : Chapter20
01:31:49.754                   : Chapter21
01:37:04.527                   : Chapter22
01:40:49.085                   : Chapter23
01:43:45.970                   : Chapter24
01:45:54.723                   : Chapter25
01:52:10.599                   : Chapter26
01:54:45.796                   : Chapter27
01:58:13.044                   : Chapter28
02:02:49.112                   : Chapter29
02:09:38.646                   : Chapter30
02:14:49.623                   : Chapter31
02:17:46.425                   : Chapter32

Screenshots:
 
http://www.shotpix.com/images/60524893125352957653.png
 
http://www.shotpix.com/images/64807013555382924978.png
 
http://www.shotpix.com/images/03332500038207698918.png
 
http://www.shotpix.com/images/38385903325815637746.png